<svg xmlns="http://www.w3.org/2000/svg" viewBox="0 0 64 64" x="0px" y="0px"><g data-name="Layer 80"><path d="M52.22,27.84a4.35,4.35,0,0,0-3.45-1.71h-14l1.47-6.39a7.52,7.52,0,0,0-7.47-9.24,1.5,1.5,0,0,0-1.36.87L20.59,26.13H14.2a3.66,3.66,0,0,0-3.7,3.62V49.88a3.66,3.66,0,0,0,3.7,3.62h28a5.43,5.43,0,0,0,5.16-3.81l5.53-17.95A4.33,4.33,0,0,0,52.22,27.84Zm-38.72,22V29.75a.66.66,0,0,1,.7-.62H20V50.5H14.2A.66.66,0,0,1,13.5,49.88Zm31-1.08a2.43,2.43,0,0,1-2.3,1.7H23V28.08l6.69-14.5a4.45,4.45,0,0,1,3.63,5.49l-1.89,8.22a1.51,1.51,0,0,0,1.46,1.84H48.77a1.34,1.34,0,0,1,1.28,1.73l-.95,3.08H41.26a1.5,1.5,0,0,0,0,3h6.92L46.31,43H41.26a1.5,1.5,0,0,0,0,3h4.13Z"/></g></svg>